<svg xmlns="http://www.w3.org/2000/svg" viewBox="0 0 64 64">
  <rect width="64" height="64" fill="#111312"/>
  <path d="M17 40.5c3.6 2.2 8.1 3.3 12.6 3.3 5.2 0 8.2-1.7 8.2-4.6 0-2.5-1.9-3.9-7.2-5.1l-3.7-.9c-6.9-1.6-10.3-5.1-10.3-10.5 0-6.8 5.5-11.3 14.3-11.3 4.6 0 8.7 1 11.6 2.6v7.1c-3.5-2.1-7.4-3.2-11.6-3.2-4.4 0-6.9 1.6-6.9 4.2 0 2.3 1.8 3.6 6.5 4.7l3.8.9c7.6 1.8 10.9 5.1 10.9 10.9 0 7.2-5.8 11.7-15.5 11.7-5.3 0-9.8-1.1-12.7-2.9z" fill="#f7f7f2"/>
  <circle cx="47.5" cy="47.5" r="3.5" fill="#9f4b3f"/>
</svg>
